<svg width="0" height="0" class="hidden">
  <symbol viewBox="0 0 450 370" xmlns="http://www.w3.org/2000/svg" id="white-on-black-logo"><title>white-on-black-logo</title><path d="M450 0v370H0V0h450zM96.622 75H75v220.655h24.324V126.127l62.162 104.946h24.325l75.675-131.855c23.373-.611 39.59-.611 48.65 0 13.588.917 43.242 10.764 43.242 51.127 0 40.364-36.676 50.456-43.243 51.128-4.378.448-16.99.448-37.838 0V163.8h32.433v-24.218h-56.757v156.073h24.324V223h37.838C326.838 223 375 209.545 375 150.345S324.306 75 310.135 75h-62.162l-75.676 131.855L96.622 75z" fill-rule="evenodd"></path></symbol>
  <symbol viewBox="0 0 450 370" xmlns="http://www.w3.org/2000/svg" id="black-on-white-logo"><title>Group</title><g fill="none" fill-rule="evenodd"><path fill="#FFF" d="M0 0h450v370H0z"></path><path d="M75 295.655h24.324V126.127l62.162 104.946h24.325l75.675-131.855c23.373-.611 39.59-.611 48.65 0 13.588.917 43.242 10.764 43.242 51.127 0 40.364-36.676 50.456-43.243 51.128-4.378.448-16.99.448-37.838 0V163.8h32.433v-24.218h-56.757v156.073h24.324V223h37.838C326.838 223 375 209.545 375 150.345S324.306 75 310.135 75h-62.162l-75.676 131.855L96.622 75H75v220.655z" fill="#000"></path></g></symbol>
</svg>
